# xmcd CD database file
#
# Track frame offsets:
#	150
#	23400
#	40892
#	73810
#	94142
#	102942
#	118075
#	165405
#	182672
#	191957
#	216030
#
# Disc length: 3191 seconds
#
# Revision: 0
# Processed by: cddbd v1.5.1PL0 Copyright (c) Steve Scherf et al.
# Submitted via: CDex 1.51
#
DISCID=940c750b
DTITLE=Yngwie J. Malmsteen's Rising Force - Mark On Balls [CD2]
DYEAR=1985
DGENRE=Heavy Metal
TTITLE0=I'll See The Light, Tonight
TTITLE1=On The Run Again
TTITLE2=Far Beyond The Sun
TTITLE3=Don't Let It End
TTITLE4=Drum Solo
TTITLE5=Soldier Without Faith
TTITLE6=Guitar Solo
TTITLE7=Anguish And Fear
TTITLE8=Icarus Dream Suite Opus 4
TTITLE9=Black Star
TTITLE10=Disciples Of Hell
EXTD=YEAR: 1985
EXTT0=
EXTT1=
EXTT2=
EXTT3=
EXTT4=
EXTT5=
EXTT6=
EXTT7=
EXTT8=
EXTT9=
EXTT10=
PLAYORDER=
